<mxfile host="app.diagrams.net" agent="Mozilla/5.0 (X11; Ubuntu; Linux x86_64; rv:130.0) Gecko/20100101 Firefox/130.0" version="24.8.0" pages="2">
  <diagram name="Page-1" id="Blg9lc4AyTavdvYOQknY">
    <mxGraphModel dx="1434" dy="720" grid="1" gridSize="10" guides="1" tooltips="1" connect="1" arrows="1" fold="1" page="1" pageScale="1" pageWidth="850" pageHeight="1100" math="0" shadow="0">
      <root>
        <mxCell id="0" />
        <mxCell id="1" parent="0" />
        <mxCell id="sEg0rdxcVXFpgvcA5jXu-1" value="Users" style="swimlane;fontStyle=0;childLayout=stackLayout;horizontal=1;startSize=26;fillColor=none;horizontalStack=0;resizeParent=1;resizeParentMax=0;resizeLast=0;collapsible=1;marginBottom=0;whiteSpace=wrap;html=1;" vertex="1" parent="1">
          <mxGeometry x="90" y="186" width="140" height="52" as="geometry" />
        </mxCell>
        <mxCell id="sEg0rdxcVXFpgvcA5jXu-2" value="+ ID: Integer" style="text;strokeColor=none;fillColor=none;align=left;verticalAlign=top;spacingLeft=4;spacingRight=4;overflow=hidden;rotatable=0;points=[[0,0.5],[1,0.5]];portConstraint=eastwest;whiteSpace=wrap;html=1;" vertex="1" parent="sEg0rdxcVXFpgvcA5jXu-1">
          <mxGeometry y="26" width="140" height="26" as="geometry" />
        </mxCell>
        <mxCell id="sEg0rdxcVXFpgvcA5jXu-22" style="edgeStyle=orthogonalEdgeStyle;rounded=0;orthogonalLoop=1;jettySize=auto;html=1;entryX=1;entryY=0.25;entryDx=0;entryDy=0;" edge="1" parent="1" source="sEg0rdxcVXFpgvcA5jXu-9" target="sEg0rdxcVXFpgvcA5jXu-16">
          <mxGeometry relative="1" as="geometry" />
        </mxCell>
        <mxCell id="sEg0rdxcVXFpgvcA5jXu-36" style="edgeStyle=orthogonalEdgeStyle;rounded=0;orthogonalLoop=1;jettySize=auto;html=1;entryX=0.25;entryY=0;entryDx=0;entryDy=0;" edge="1" parent="1" source="sEg0rdxcVXFpgvcA5jXu-9" target="sEg0rdxcVXFpgvcA5jXu-26">
          <mxGeometry relative="1" as="geometry">
            <Array as="points">
              <mxPoint x="490" y="160" />
              <mxPoint x="705" y="160" />
            </Array>
          </mxGeometry>
        </mxCell>
        <mxCell id="sEg0rdxcVXFpgvcA5jXu-9" value="Store" style="swimlane;fontStyle=0;childLayout=stackLayout;horizontal=1;startSize=26;fillColor=none;horizontalStack=0;resizeParent=1;resizeParentMax=0;resizeLast=0;collapsible=1;marginBottom=0;whiteSpace=wrap;html=1;" vertex="1" parent="1">
          <mxGeometry x="400" y="190" width="140" height="52" as="geometry" />
        </mxCell>
        <mxCell id="sEg0rdxcVXFpgvcA5jXu-10" value="+ ID: Integer" style="text;strokeColor=none;fillColor=none;align=left;verticalAlign=top;spacingLeft=4;spacingRight=4;overflow=hidden;rotatable=0;points=[[0,0.5],[1,0.5]];portConstraint=eastwest;whiteSpace=wrap;html=1;" vertex="1" parent="sEg0rdxcVXFpgvcA5jXu-9">
          <mxGeometry y="26" width="140" height="26" as="geometry" />
        </mxCell>
        <mxCell id="sEg0rdxcVXFpgvcA5jXu-43" style="edgeStyle=orthogonalEdgeStyle;rounded=0;orthogonalLoop=1;jettySize=auto;html=1;entryX=0.75;entryY=0;entryDx=0;entryDy=0;" edge="1" parent="1" source="sEg0rdxcVXFpgvcA5jXu-11" target="sEg0rdxcVXFpgvcA5jXu-28">
          <mxGeometry relative="1" as="geometry" />
        </mxCell>
        <mxCell id="sEg0rdxcVXFpgvcA5jXu-11" value="Product" style="swimlane;fontStyle=0;childLayout=stackLayout;horizontal=1;startSize=26;fillColor=none;horizontalStack=0;resizeParent=1;resizeParentMax=0;resizeLast=0;collapsible=1;marginBottom=0;whiteSpace=wrap;html=1;" vertex="1" parent="1">
          <mxGeometry x="390" y="328" width="140" height="52" as="geometry" />
        </mxCell>
        <mxCell id="sEg0rdxcVXFpgvcA5jXu-12" value="+ ID: Integer" style="text;strokeColor=none;fillColor=none;align=left;verticalAlign=top;spacingLeft=4;spacingRight=4;overflow=hidden;rotatable=0;points=[[0,0.5],[1,0.5]];portConstraint=eastwest;whiteSpace=wrap;html=1;" vertex="1" parent="sEg0rdxcVXFpgvcA5jXu-11">
          <mxGeometry y="26" width="140" height="26" as="geometry" />
        </mxCell>
        <mxCell id="sEg0rdxcVXFpgvcA5jXu-14" value="*" style="text;html=1;align=center;verticalAlign=middle;resizable=0;points=[];autosize=1;strokeColor=none;fillColor=none;" vertex="1" parent="1">
          <mxGeometry x="435" y="238" width="30" height="30" as="geometry" />
        </mxCell>
        <mxCell id="sEg0rdxcVXFpgvcA5jXu-15" value="1" style="text;html=1;align=center;verticalAlign=middle;resizable=0;points=[];autosize=1;strokeColor=none;fillColor=none;" vertex="1" parent="1">
          <mxGeometry x="445" y="298" width="30" height="30" as="geometry" />
        </mxCell>
        <mxCell id="sEg0rdxcVXFpgvcA5jXu-16" value="StoreOwner" style="swimlane;fontStyle=0;childLayout=stackLayout;horizontal=1;startSize=26;fillColor=none;horizontalStack=0;resizeParent=1;resizeParentMax=0;resizeLast=0;collapsible=1;marginBottom=0;whiteSpace=wrap;html=1;" vertex="1" parent="1">
          <mxGeometry x="270" y="70" width="140" height="52" as="geometry" />
        </mxCell>
        <mxCell id="sEg0rdxcVXFpgvcA5jXu-17" value="+ ID: Integer" style="text;strokeColor=none;fillColor=none;align=left;verticalAlign=top;spacingLeft=4;spacingRight=4;overflow=hidden;rotatable=0;points=[[0,0.5],[1,0.5]];portConstraint=eastwest;whiteSpace=wrap;html=1;" vertex="1" parent="sEg0rdxcVXFpgvcA5jXu-16">
          <mxGeometry y="26" width="140" height="26" as="geometry" />
        </mxCell>
        <mxCell id="sEg0rdxcVXFpgvcA5jXu-19" value="Users" style="swimlane;fontStyle=0;childLayout=stackLayout;horizontal=1;startSize=26;fillColor=none;horizontalStack=0;resizeParent=1;resizeParentMax=0;resizeLast=0;collapsible=1;marginBottom=0;whiteSpace=wrap;html=1;" vertex="1" parent="1">
          <mxGeometry x="60" y="514" width="140" height="52" as="geometry" />
        </mxCell>
        <mxCell id="sEg0rdxcVXFpgvcA5jXu-20" value="+ ID: Integer" style="text;strokeColor=none;fillColor=none;align=left;verticalAlign=top;spacingLeft=4;spacingRight=4;overflow=hidden;rotatable=0;points=[[0,0.5],[1,0.5]];portConstraint=eastwest;whiteSpace=wrap;html=1;" vertex="1" parent="sEg0rdxcVXFpgvcA5jXu-19">
          <mxGeometry y="26" width="140" height="26" as="geometry" />
        </mxCell>
        <mxCell id="sEg0rdxcVXFpgvcA5jXu-24" style="edgeStyle=orthogonalEdgeStyle;rounded=0;orthogonalLoop=1;jettySize=auto;html=1;entryX=-0.014;entryY=0.269;entryDx=0;entryDy=0;entryPerimeter=0;" edge="1" parent="1" source="sEg0rdxcVXFpgvcA5jXu-1" target="sEg0rdxcVXFpgvcA5jXu-17">
          <mxGeometry relative="1" as="geometry" />
        </mxCell>
        <mxCell id="sEg0rdxcVXFpgvcA5jXu-25" style="edgeStyle=orthogonalEdgeStyle;rounded=0;orthogonalLoop=1;jettySize=auto;html=1;entryX=0.9;entryY=1.067;entryDx=0;entryDy=0;entryPerimeter=0;" edge="1" parent="1" source="sEg0rdxcVXFpgvcA5jXu-9" target="sEg0rdxcVXFpgvcA5jXu-15">
          <mxGeometry relative="1" as="geometry" />
        </mxCell>
        <mxCell id="sEg0rdxcVXFpgvcA5jXu-37" style="edgeStyle=orthogonalEdgeStyle;rounded=0;orthogonalLoop=1;jettySize=auto;html=1;entryX=1;entryY=0.5;entryDx=0;entryDy=0;" edge="1" parent="1" source="sEg0rdxcVXFpgvcA5jXu-26" target="sEg0rdxcVXFpgvcA5jXu-28">
          <mxGeometry relative="1" as="geometry">
            <Array as="points">
              <mxPoint x="820" y="226" />
              <mxPoint x="820" y="386" />
            </Array>
          </mxGeometry>
        </mxCell>
        <mxCell id="sEg0rdxcVXFpgvcA5jXu-26" value="Sale" style="swimlane;fontStyle=0;childLayout=stackLayout;horizontal=1;startSize=26;fillColor=none;horizontalStack=0;resizeParent=1;resizeParentMax=0;resizeLast=0;collapsible=1;marginBottom=0;whiteSpace=wrap;html=1;" vertex="1" parent="1">
          <mxGeometry x="670" y="200" width="140" height="52" as="geometry" />
        </mxCell>
        <mxCell id="sEg0rdxcVXFpgvcA5jXu-27" value="+ ID: Integer" style="text;strokeColor=none;fillColor=none;align=left;verticalAlign=top;spacingLeft=4;spacingRight=4;overflow=hidden;rotatable=0;points=[[0,0.5],[1,0.5]];portConstraint=eastwest;whiteSpace=wrap;html=1;" vertex="1" parent="sEg0rdxcVXFpgvcA5jXu-26">
          <mxGeometry y="26" width="140" height="26" as="geometry" />
        </mxCell>
        <mxCell id="sEg0rdxcVXFpgvcA5jXu-28" value="SaleItem" style="swimlane;fontStyle=0;childLayout=stackLayout;horizontal=1;startSize=26;fillColor=none;horizontalStack=0;resizeParent=1;resizeParentMax=0;resizeLast=0;collapsible=1;marginBottom=0;whiteSpace=wrap;html=1;" vertex="1" parent="1">
          <mxGeometry x="660" y="360" width="140" height="78" as="geometry" />
        </mxCell>
        <mxCell id="sEg0rdxcVXFpgvcA5jXu-29" value="+ ID: Integer" style="text;strokeColor=none;fillColor=none;align=left;verticalAlign=top;spacingLeft=4;spacingRight=4;overflow=hidden;rotatable=0;points=[[0,0.5],[1,0.5]];portConstraint=eastwest;whiteSpace=wrap;html=1;" vertex="1" parent="sEg0rdxcVXFpgvcA5jXu-28">
          <mxGeometry y="26" width="140" height="26" as="geometry" />
        </mxCell>
        <mxCell id="sEg0rdxcVXFpgvcA5jXu-42" value="+ quantity: Integer" style="text;strokeColor=none;fillColor=none;align=left;verticalAlign=top;spacingLeft=4;spacingRight=4;overflow=hidden;rotatable=0;points=[[0,0.5],[1,0.5]];portConstraint=eastwest;whiteSpace=wrap;html=1;" vertex="1" parent="sEg0rdxcVXFpgvcA5jXu-28">
          <mxGeometry y="52" width="140" height="26" as="geometry" />
        </mxCell>
        <mxCell id="sEg0rdxcVXFpgvcA5jXu-40" value="SaleItem" style="swimlane;fontStyle=0;childLayout=stackLayout;horizontal=1;startSize=26;fillColor=none;horizontalStack=0;resizeParent=1;resizeParentMax=0;resizeLast=0;collapsible=1;marginBottom=0;whiteSpace=wrap;html=1;" vertex="1" parent="1">
          <mxGeometry x="580" y="510" width="140" height="52" as="geometry" />
        </mxCell>
        <mxCell id="sEg0rdxcVXFpgvcA5jXu-41" value="+ ID: Integer" style="text;strokeColor=none;fillColor=none;align=left;verticalAlign=top;spacingLeft=4;spacingRight=4;overflow=hidden;rotatable=0;points=[[0,0.5],[1,0.5]];portConstraint=eastwest;whiteSpace=wrap;html=1;" vertex="1" parent="sEg0rdxcVXFpgvcA5jXu-40">
          <mxGeometry y="26" width="140" height="26" as="geometry" />
        </mxCell>
      </root>
    </mxGraphModel>
  </diagram>
  <diagram id="rlkcMc93XexjRaMo6Tog" name="Page-2">
    <mxGraphModel dx="1434" dy="720" grid="1" gridSize="10" guides="1" tooltips="1" connect="1" arrows="1" fold="1" page="1" pageScale="1" pageWidth="850" pageHeight="1100" math="0" shadow="0">
      <root>
        <mxCell id="0" />
        <mxCell id="1" parent="0" />
        <mxCell id="nI2OVJiu_hS6T7cs2dhb-4" value="User case " style="shape=umlFrame;whiteSpace=wrap;html=1;pointerEvents=0;" vertex="1" parent="1">
          <mxGeometry x="275" y="130" width="515" height="630" as="geometry" />
        </mxCell>
        <mxCell id="nI2OVJiu_hS6T7cs2dhb-5" value="authentication" style="ellipse;whiteSpace=wrap;html=1;fillColor=#ffe6cc;strokeColor=#d79b00;" vertex="1" parent="1">
          <mxGeometry x="690" y="370" width="100" height="70" as="geometry" />
        </mxCell>
        <mxCell id="nI2OVJiu_hS6T7cs2dhb-6" value="create store" style="ellipse;whiteSpace=wrap;html=1;" vertex="1" parent="1">
          <mxGeometry x="335" y="430" width="90" height="60" as="geometry" />
        </mxCell>
        <mxCell id="nI2OVJiu_hS6T7cs2dhb-7" value="create product" style="ellipse;whiteSpace=wrap;html=1;" vertex="1" parent="1">
          <mxGeometry x="375" y="330" width="100" height="50" as="geometry" />
        </mxCell>
        <mxCell id="nI2OVJiu_hS6T7cs2dhb-8" value="Connect to store" style="ellipse;whiteSpace=wrap;html=1;" vertex="1" parent="1">
          <mxGeometry x="530" y="240" width="110" height="60" as="geometry" />
        </mxCell>
        <mxCell id="nI2OVJiu_hS6T7cs2dhb-9" value="Add item to cart" style="ellipse;whiteSpace=wrap;html=1;" vertex="1" parent="1">
          <mxGeometry x="525" y="450" width="115" height="60" as="geometry" />
        </mxCell>
        <mxCell id="nI2OVJiu_hS6T7cs2dhb-10" value="Save cart" style="ellipse;whiteSpace=wrap;html=1;" vertex="1" parent="1">
          <mxGeometry x="420" y="560" width="110" height="60" as="geometry" />
        </mxCell>
        <mxCell id="nI2OVJiu_hS6T7cs2dhb-11" value="purhase " style="ellipse;whiteSpace=wrap;html=1;" vertex="1" parent="1">
          <mxGeometry x="360" y="230" width="100" height="50" as="geometry" />
        </mxCell>
        <mxCell id="nI2OVJiu_hS6T7cs2dhb-31" value="" style="edgeStyle=orthogonalEdgeStyle;rounded=0;orthogonalLoop=1;jettySize=auto;html=1;" edge="1" parent="1" source="nI2OVJiu_hS6T7cs2dhb-12">
          <mxGeometry relative="1" as="geometry">
            <mxPoint x="115" y="460" as="targetPoint" />
          </mxGeometry>
        </mxCell>
        <mxCell id="nI2OVJiu_hS6T7cs2dhb-32" value="" style="edgeStyle=orthogonalEdgeStyle;rounded=0;orthogonalLoop=1;jettySize=auto;html=1;" edge="1" parent="1" source="nI2OVJiu_hS6T7cs2dhb-12">
          <mxGeometry relative="1" as="geometry">
            <mxPoint x="115" y="460" as="targetPoint" />
          </mxGeometry>
        </mxCell>
        <mxCell id="nI2OVJiu_hS6T7cs2dhb-12" value="Actor" style="shape=umlActor;verticalLabelPosition=bottom;verticalAlign=top;html=1;" vertex="1" parent="1">
          <mxGeometry x="100" y="320" width="30" height="60" as="geometry" />
        </mxCell>
        <mxCell id="nI2OVJiu_hS6T7cs2dhb-13" value="Include" style="endArrow=block;endSize=16;endFill=0;html=1;rounded=0;exitX=1.027;exitY=0.633;exitDx=0;exitDy=0;exitPerimeter=0;entryX=0.57;entryY=0.043;entryDx=0;entryDy=0;entryPerimeter=0;" edge="1" parent="1" source="nI2OVJiu_hS6T7cs2dhb-8" target="nI2OVJiu_hS6T7cs2dhb-5">
          <mxGeometry width="160" relative="1" as="geometry">
            <mxPoint x="620" y="327.98" as="sourcePoint" />
            <mxPoint x="750" y="360" as="targetPoint" />
          </mxGeometry>
        </mxCell>
        <mxCell id="nI2OVJiu_hS6T7cs2dhb-14" value="Include" style="endArrow=block;endSize=16;endFill=0;html=1;rounded=0;exitX=0.974;exitY=0.65;exitDx=0;exitDy=0;exitPerimeter=0;" edge="1" parent="1" source="nI2OVJiu_hS6T7cs2dhb-9">
          <mxGeometry x="-0.0005" width="160" relative="1" as="geometry">
            <mxPoint x="580" y="440" as="sourcePoint" />
            <mxPoint x="740" y="440" as="targetPoint" />
            <mxPoint as="offset" />
          </mxGeometry>
        </mxCell>
        <mxCell id="nI2OVJiu_hS6T7cs2dhb-17" value="Include" style="endArrow=block;endSize=16;endFill=0;html=1;rounded=0;" edge="1" parent="1" target="nI2OVJiu_hS6T7cs2dhb-5">
          <mxGeometry width="160" relative="1" as="geometry">
            <mxPoint x="475" y="360" as="sourcePoint" />
            <mxPoint x="635" y="360" as="targetPoint" />
          </mxGeometry>
        </mxCell>
        <mxCell id="nI2OVJiu_hS6T7cs2dhb-18" value="Use" style="endArrow=open;endSize=12;dashed=1;html=1;rounded=0;exitX=0.5;exitY=0.5;exitDx=0;exitDy=0;exitPerimeter=0;" edge="1" parent="1" source="nI2OVJiu_hS6T7cs2dhb-12" target="nI2OVJiu_hS6T7cs2dhb-11">
          <mxGeometry width="160" relative="1" as="geometry">
            <mxPoint x="90" y="340" as="sourcePoint" />
            <mxPoint x="250" y="340" as="targetPoint" />
          </mxGeometry>
        </mxCell>
        <mxCell id="nI2OVJiu_hS6T7cs2dhb-19" value="Use" style="endArrow=open;endSize=12;dashed=1;html=1;rounded=0;exitX=0.5;exitY=0.5;exitDx=0;exitDy=0;exitPerimeter=0;" edge="1" parent="1" target="nI2OVJiu_hS6T7cs2dhb-7">
          <mxGeometry width="160" relative="1" as="geometry">
            <mxPoint x="125" y="360" as="sourcePoint" />
            <mxPoint x="378" y="279" as="targetPoint" />
          </mxGeometry>
        </mxCell>
        <mxCell id="nI2OVJiu_hS6T7cs2dhb-20" value="Use" style="endArrow=open;endSize=12;dashed=1;html=1;rounded=0;exitX=0.5;exitY=0.5;exitDx=0;exitDy=0;exitPerimeter=0;entryX=0.278;entryY=0.033;entryDx=0;entryDy=0;entryPerimeter=0;" edge="1" parent="1" target="nI2OVJiu_hS6T7cs2dhb-6">
          <mxGeometry width="160" relative="1" as="geometry">
            <mxPoint x="135" y="370" as="sourcePoint" />
            <mxPoint x="385" y="366" as="targetPoint" />
          </mxGeometry>
        </mxCell>
        <mxCell id="nI2OVJiu_hS6T7cs2dhb-21" value="Use" style="endArrow=open;endSize=12;dashed=1;html=1;rounded=0;exitX=0.5;exitY=0.5;exitDx=0;exitDy=0;exitPerimeter=0;" edge="1" parent="1" target="nI2OVJiu_hS6T7cs2dhb-10">
          <mxGeometry width="160" relative="1" as="geometry">
            <mxPoint x="135" y="370" as="sourcePoint" />
            <mxPoint x="385" y="366" as="targetPoint" />
          </mxGeometry>
        </mxCell>
        <mxCell id="nI2OVJiu_hS6T7cs2dhb-22" value="Include" style="endArrow=block;endSize=16;endFill=0;html=1;rounded=0;" edge="1" parent="1" source="nI2OVJiu_hS6T7cs2dhb-10">
          <mxGeometry x="-0.0005" width="160" relative="1" as="geometry">
            <mxPoint x="647" y="499" as="sourcePoint" />
            <mxPoint x="750" y="450" as="targetPoint" />
            <mxPoint as="offset" />
          </mxGeometry>
        </mxCell>
        <mxCell id="nI2OVJiu_hS6T7cs2dhb-23" value="Use" style="endArrow=open;endSize=12;dashed=1;html=1;rounded=0;exitX=0.5;exitY=0.5;exitDx=0;exitDy=0;exitPerimeter=0;" edge="1" parent="1" target="nI2OVJiu_hS6T7cs2dhb-9">
          <mxGeometry width="160" relative="1" as="geometry">
            <mxPoint x="145" y="380" as="sourcePoint" />
            <mxPoint x="450" y="577" as="targetPoint" />
          </mxGeometry>
        </mxCell>
        <mxCell id="nI2OVJiu_hS6T7cs2dhb-24" value="Use" style="endArrow=open;endSize=12;dashed=1;html=1;rounded=0;exitX=0.5;exitY=0.5;exitDx=0;exitDy=0;exitPerimeter=0;" edge="1" parent="1" target="nI2OVJiu_hS6T7cs2dhb-8">
          <mxGeometry width="160" relative="1" as="geometry">
            <mxPoint x="125" y="360" as="sourcePoint" />
            <mxPoint x="378" y="279" as="targetPoint" />
          </mxGeometry>
        </mxCell>
      </root>
    </mxGraphModel>
  </diagram>
</mxfile>
